<?xml version="1.0" encoding="utf-8"?>
<!-- Generator: Adobe Illustrator 19.1.0, SVG Export Plug-In . SVG Version: 6.00 Build 0)  -->
<svg version="1.1" id="Layer_1" xmlns="http://www.w3.org/2000/svg" xmlns:xlink="http://www.w3.org/1999/xlink" x="0px" y="0px"
	 viewBox="0 0 456.7 165.6" enable-background="new 0 0 456.7 165.6" xml:space="preserve">
<path fill="#333333" d="M27.3,0H0v136.7h32.1c16.8,0,28.5-5,35.2-14.9c6.7-9.9,10-28,10-54.1c0-25.7-3.3-43.4-10-53.1
	C60.6,4.9,47.3,0,27.3,0z M45.3,115c-2.4,4.6-6.7,6.8-12.9,6.8h-4.9V15h4.9c6.3,0,10.6,3.9,13,11.6c2.4,7.7,3.6,21.9,3.6,42.5
	C48.9,95.1,47.7,110.4,45.3,115z"/>
<rect x="82.6" y="0.1" fill="#333333" width="25.8" height="23.9"/>
<rect x="82.6" y="32" fill="#333333" width="25.8" height="104.7"/>
<path fill="#333333" d="M151.7,77.6c-8.2-7.2-13.1-12.1-14.7-14.8c-1.6-2.7-2.4-5.4-2.4-8.3c0-2.4,0.7-4.2,2.1-5.5
	c1.4-1.3,3.1-1.9,5.2-1.9c2.5,0,4.4,1,5.8,2.9c1.4,1.9,2.1,4.5,2.1,7.6h20.6c0-8.6-2.5-15.3-7.4-20c-4.9-4.7-12-7-21.3-7
	c-8.7,0-15.7,2.3-21,6.8c-5.3,4.6-8,10.7-8,18.4c0,7.4,1.1,13.6,3.2,18.6c2.1,5,7.1,10.9,15,17.8c6.2,5.3,10.7,9.5,13.4,12.4
	c2.7,2.9,4.1,5.6,4.1,8.1c0,2.7-0.6,4.7-1.9,6.1c-1.3,1.4-3.2,2-5.8,2c-2.7,0-4.7-0.9-6.1-2.6c-1.4-1.7-2.1-4.5-2.1-8.3h-20.9
	c0,9.2,2.5,16.2,7.5,20.8c5,4.6,12.4,6.9,22.3,6.9c9.2,0,16.4-2.5,21.7-7.4c5.3-4.9,7.9-11.8,7.9-20.7c0-5.7-1.4-10.9-4.2-15.5
	C164,89.4,159,84,151.7,77.6z"/>
<path fill="#333333" d="M452.6,94.1c-2.8-4.6-7.8-10.1-15-16.4c-8.2-7.2-13.1-12.1-14.7-14.8c-1.6-2.7-2.4-5.4-2.4-8.3
	c0-2.4,0.7-4.2,2.1-5.5c1.4-1.3,3.1-1.9,5.2-1.9c2.5,0,4.4,1,5.8,2.9c1.4,1.9,2.1,4.5,2.1,7.6h20.6c0-8.6-2.5-15.3-7.4-20
	c-4.9-4.7-12-7-21.3-7c-8.7,0-15.7,2.3-21,6.8c-5.3,4.6-8,10.7-8,18.4c0,7.4,1.1,13.6,3.2,18.6c2.1,5,7.1,10.9,15,17.8
	c6.2,5.3,10.7,9.5,13.4,12.4c2.7,2.9,4.1,5.6,4.1,8.1c0,2.7-0.6,4.7-2,6.1c-1.3,1.4-3.2,2-5.8,2c-2.7,0-4.7-0.9-6.1-2.6
	c-1.4-1.7-2.1-4.5-2.1-8.3h-20.9c0,9.2,2.5,16.2,7.5,20.8c5,4.6,12.4,6.9,22.3,6.9c9.2,0,16.4-2.5,21.7-7.4
	c5.3-4.9,7.9-11.8,7.9-20.7C456.7,103.8,455.3,98.7,452.6,94.1z"/>
<path fill="#333333" d="M225,110.7h-9.7c-0.4,4.5-1.1,7.4-2.2,8.8c-1.1,1.4-2.8,2-5.1,2c-3.7,0-6.1-2.2-7.1-6.5
	c-1.1-4.3-1.6-14.6-1.6-30.9c0-14.1,0.5-23.8,1.4-29.2c0.9-5.4,3.3-8.1,7-8.1c2.2,0,3.8,0.9,4.7,2.8c0.9,1.9,1.4,6,1.4,12.4h11.3
	c2.5-5.2,5.6-10,9.5-14.2c-1.2-3.7-3.1-6.9-5.5-9.4c-5-5.2-12.2-7.8-21.5-7.8c-11.7,0-20.5,4.5-26.3,13.5c-5.8,9-8.7,22.3-8.7,40
	c0,17.8,2.8,31.2,8.4,40.1c5.6,9,13.8,13.5,24.7,13.5c9.6,0,16.8-2.2,21.6-6.6c2.4-2.2,4.1-4.9,5.3-8.3
	C229.6,119.1,227.1,115,225,110.7z"/>
<path fill="#333333" d="M334.9,86.5c0,10.2-2.6,19.7-7.3,28c1.6,5.9,3.9,10.4,6.9,13.6c4.1,4.2,9.8,6.3,17.1,6.3
	c4.3,0,8.1-0.6,11.3-1.7c3.2-1.1,5.4-2.6,6.5-4.4c0.1,1,0.2,2,0.2,2.8c0.1,0.8,0.1,1.6,0.1,2.3c0,5.5-1.2,9.6-3.7,12.4
	c-2.5,2.8-6.3,4.3-11.5,4.3c-3.4,0-7.2-0.4-11.3-1.2c-4.1-0.8-7.5-1.7-10.1-2.9l-3.2,14.3c3.9,1.8,8.2,3.1,13,4
	c4.8,0.9,9.5,1.3,14.1,1.3c11.2,0,20-2.8,26.6-8.4c6.5-5.6,9.8-13.5,9.8-23.7V32h-25.7v2.5c-2.3-1.4-4.6-2.4-6.9-3
	c-2.3-0.6-5-0.9-8.1-0.9c-6.3,0-11.6,1.9-15.9,5.8c-4.4,3.9-7.5,9.3-9.4,16.1c-0.3,1.2-0.7,2.6-1,4.3
	C331.8,65.5,334.8,75.6,334.9,86.5 M367.9,117.3c-1.1,0.9-2.2,1.5-3.3,1.9c-1.1,0.4-2.6,0.6-4.4,0.6c-2.4,0-4.2-0.7-5.5-2.1
	c-1.3-1.4-2.1-3.7-2.4-6.9c-0.3-3.3-0.6-7.5-0.8-12.5c-0.2-5-0.3-10.3-0.3-15.9c0-3.6,0.1-7.6,0.3-12.3c0.2-4.6,0.5-8.9,0.9-12.9
	c0.4-3.9,1.2-6.5,2.6-7.9c1.4-1.4,3.5-2.1,6.3-2.1c1,0,2.2,0.2,3.5,0.4c1.3,0.3,2.4,0.7,3.1,1.1V117.3z"/>
<path fill="#333333" d="M315.1,47.6"/>
<g>
	<path fill="#333333" d="M442.1,22c0.4-0.8,0.9-1.5,1.5-2.1s1.4-1,2.2-1.4c0.8-0.3,1.7-0.5,2.6-0.5c0.9,0,1.8,0.2,2.6,0.5
		c0.8,0.3,1.6,0.8,2.2,1.4c0.6,0.6,1.1,1.3,1.5,2.1c0.4,0.8,0.6,1.8,0.6,2.8c0,1-0.2,2-0.6,2.8c-0.4,0.8-0.9,1.5-1.5,2.1
		c-0.6,0.6-1.4,1-2.2,1.3c-0.8,0.3-1.7,0.5-2.6,0.5c-0.9,0-1.8-0.2-2.6-0.5c-0.8-0.3-1.6-0.8-2.2-1.3s-1.1-1.3-1.5-2.1
		c-0.4-0.8-0.6-1.8-0.6-2.8C441.6,23.7,441.8,22.8,442.1,22z M443.8,26.9c0.3,0.6,0.6,1.2,1.1,1.7c0.5,0.5,1,0.8,1.6,1.1
		c0.6,0.3,1.3,0.4,2,0.4c0.7,0,1.4-0.1,2-0.4c0.6-0.3,1.2-0.6,1.6-1.1c0.5-0.5,0.8-1,1.1-1.7c0.3-0.6,0.4-1.4,0.4-2.1
		s-0.1-1.5-0.4-2.1c-0.3-0.6-0.6-1.2-1.1-1.7c-0.5-0.5-1-0.8-1.6-1.1c-0.6-0.3-1.3-0.4-2-0.4c-0.7,0-1.4,0.1-2,0.4
		c-0.6,0.3-1.2,0.6-1.6,1.1c-0.5,0.5-0.8,1-1.1,1.7c-0.3,0.6-0.4,1.3-0.4,2.1S443.5,26.2,443.8,26.9z M448.6,21
		c0.9,0,1.7,0.2,2.2,0.5c0.5,0.3,0.8,0.9,0.8,1.7c0,0.3-0.1,0.6-0.2,0.9c-0.1,0.2-0.2,0.4-0.4,0.6c-0.2,0.2-0.4,0.3-0.6,0.4
		c-0.2,0.1-0.5,0.1-0.8,0.2l2,3.3h-1.6l-1.8-3.2h-0.9v3.2h-1.5V21H448.6z M448.6,24.1c0.4,0,0.8-0.1,1.1-0.2
		c0.3-0.1,0.4-0.4,0.4-0.9c0-0.2,0-0.4-0.1-0.5c-0.1-0.1-0.2-0.2-0.4-0.3c-0.1-0.1-0.3-0.1-0.5-0.1c-0.2,0-0.4,0-0.5,0h-1.3v2H448.6
		z"/>
</g>
<path fill="#333333" d="M276.8,32.2c0.2,0.1,0.4,0.1,0.5,0.1C277.1,32.3,276.9,32.2,276.8,32.2z"/>
<path fill="#333333" d="M257.5,107.1l0.3-0.3l0,0l3.5-3.8l0.1-0.1l1.9-2.1c0,0,0,0,0.1,0.1c-3.8-3.6-6.1-8.7-6.1-14.4
	c0-11.1,9-20.1,20.1-20.1c3.7,0,7.1,1,10,2.7l4-7.2c0,0,0,0,0,0l0.2-0.4c0,0,0,0,0,0l4-7.4c0,0,0,0,0,0l0.2-0.4c0,0,0,0,0,0l4-7.4
	c0,0,0,0,0,0l0.2-0.4c0,0,0,0,0,0l2.1-3.9l0,0l1.5-2.8c-7.6-4.3-16.3-6.8-25.6-6.9h-0.9c-29.8,0-53.9,24-54.2,53.7l0,0v0.5
	c0,15.5,6.6,29.5,17.1,39.4l2.7-2.9l0,0l2.7-2.9c0,0,0,0,0,0l0.3-0.3c0,0,0,0,0,0l5.7-6.2c0,0,0,0,0,0l0.3-0.3c0,0,0,0,0,0
	L257.5,107.1C257.5,107.1,257.5,107.1,257.5,107.1z"/>
<path fill="#333333" d="M315.1,47.6l-5.2,5.6c0,0,0,0,0,0l-0.3,0.3c0,0,0,0,0,0l-5.7,6.2l0,0l-0.3,0.3c0,0,0,0,0,0l-5.7,6.2l0,0
	l-0.3,0.3c0,0,0,0,0,0l-2.1,2.3l0,0l-3.5,3.7c3.4,3.6,5.5,8.5,5.5,13.8c0,11.1-9,20.1-20,20.1c-3.4,0-6.5-0.8-9.3-2.3l0,0l-4,7.2
	l-5.7,10.1l-3,5.3h0l-0.2,0.4l-3.9,6.9c7.7,4.2,16.6,6.7,26,6.7c29.9,0,54.2-24.3,54.2-54.2C331.5,71.2,325.2,57.5,315.1,47.6z"/>
<path fill="#333333" d="M277.4,82.6c-2.1,0-3.8,1.7-3.8,3.8c0,2.1,1.7,3.8,3.8,3.8c2.1,0,3.8-1.7,3.8-3.8
	C281.2,84.3,279.5,82.6,277.4,82.6z"/>
</svg>
